<svg xmlns="http://www.w3.org/2000/svg" xmlns:xlink="http://www.w3.org/1999/xlink" viewBox="0 0 512 512"><defs><style>.cls-1{isolation:isolate;}.cls-2{fill:url(#Degradado_sin_nombre_168);}.cls-3{stroke-miterlimit:10;fill:url(#Degradado_sin_nombre_169);stroke:url(#Degradado_sin_nombre_118);}.cls-4{fill:#fddb00;}.cls-5{fill:#5d5d5d;opacity:0.17;mix-blend-mode:multiply;}.cls-6{fill:url(#Degradado_sin_nombre_154);}.cls-7{fill:url(#Degradado_sin_nombre_163);}.cls-8{fill:url(#Degradado_sin_nombre_126);}.cls-9{fill:#ffffbc;}.cls-10{fill:#fbf08f;}.cls-11{opacity:0.7;mix-blend-mode:screen;fill:url(#Degradado_sin_nombre_160);}.cls-12{fill:none;}</style><linearGradient id="Degradado_sin_nombre_168" x1="400.63" y1="177.86" x2="427.9" y2="177.86" gradientUnits="userSpaceOnUse"><stop offset="0" stop-color="#337600"/><stop offset="0.09" stop-color="#296800"/><stop offset="0.28" stop-color="#1a5000"/><stop offset="0.49" stop-color="#0f4000"/><stop offset="0.71" stop-color="#083600"/><stop offset="1" stop-color="#063300"/></linearGradient><linearGradient id="Degradado_sin_nombre_169" x1="124.79" y1="215.18" x2="376.46" y2="215.18" gradientUnits="userSpaceOnUse"><stop offset="0" stop-color="#bf8d01"/><stop offset="0.39" stop-color="#c19003"/><stop offset="0.62" stop-color="#c6980a"/><stop offset="0.82" stop-color="#d0a615"/><stop offset="0.99" stop-color="#deba25"/><stop offset="1" stop-color="#dfbc26"/></linearGradient><linearGradient id="Degradado_sin_nombre_118" x1="124.29" y1="215.18" x2="376.96" y2="215.18" gradientUnits="userSpaceOnUse"><stop offset="0" stop-color="#dfbc26"/><stop offset="0.01" stop-color="#deba25"/><stop offset="0.08" stop-color="#d0a615"/><stop offset="0.16" stop-color="#c6980a"/><stop offset="0.27" stop-color="#c19003"/><stop offset="0.44" stop-color="#bf8d01"/><stop offset="0.57" stop-color="#cba324"/><stop offset="0.85" stop-color="#ebda7b"/><stop offset="1" stop-color="#fcf8aa"/></linearGradient><linearGradient id="Degradado_sin_nombre_154" x1="100.55" y1="215.18" x2="400.7" y2="215.18" gradientUnits="userSpaceOnUse"><stop offset="0" stop-color="#fcf8aa"/><stop offset="0.5" stop-color="#b3942e"/><stop offset="0.5" stop-color="#cca930"/><stop offset="0.5" stop-color="#e0bb32"/><stop offset="0.51" stop-color="#eec733"/><stop offset="0.51" stop-color="#f6cf34"/><stop offset="0.52" stop-color="#f9d134"/><stop offset="0.78" stop-color="#fcdd82"/><stop offset="1" stop-color="#e1a52d"/></linearGradient><linearGradient id="Degradado_sin_nombre_163" x1="100.55" y1="215.18" x2="400.7" y2="215.18" gradientUnits="userSpaceOnUse"><stop offset="0" stop-color="#e1a52d"/><stop offset="0.22" stop-color="#fcdd82"/><stop offset="0.49" stop-color="#f9d134"/><stop offset="0.49" stop-color="#f6cf34"/><stop offset="0.49" stop-color="#eec733"/><stop offset="0.5" stop-color="#e0bb32"/><stop offset="0.5" stop-color="#cca930"/><stop offset="0.5" stop-color="#b3942e"/><stop offset="1" stop-color="#fcf8aa"/></linearGradient><linearGradient id="Degradado_sin_nombre_126" x1="74.35" y1="324.96" x2="437.65" y2="324.96" gradientUnits="userSpaceOnUse"><stop offset="0" stop-color="#337600"/><stop offset="0.46" stop-color="#8daa00"/><stop offset="0.61" stop-color="#6a9600"/><stop offset="0.95" stop-color="#136400"/><stop offset="1" stop-color="#065c00"/></linearGradient><radialGradient id="Degradado_sin_nombre_160" cx="601.7" cy="-323.61" r="32.32" gradientTransform="matrix(3.72, 0, 0, 0.6, -1937.08, 442.64)" gradientUnits="userSpaceOnUse"><stop offset="0" stop-color="#fff"/><stop offset="0.01" stop-color="#fbfbfb"/><stop offset="0.13" stop-color="#c1c1c1"/><stop offset="0.25" stop-color="#8d8d8d"/><stop offset="0.37" stop-color="#626262"/><stop offset="0.5" stop-color="#3f3f3f"/><stop offset="0.62" stop-color="#232323"/><stop offset="0.74" stop-color="#101010"/><stop offset="0.87" stop-color="#040404"/><stop offset="1"/></radialGradient></defs><g class="cls-1"><g id="Layer_2" data-name="Layer 2"><g id="OBJECTS"><path class="cls-2" d="M400.63,149s26.72,6.42,27.26,22.09c.73,21.32-27.19,35.62-27.19,35.62Z"/><polygon class="cls-3" points="376.46 315.66 250.62 373.15 124.79 315.66 124.79 114.71 250.62 57.22 376.46 114.71 376.46 315.66"/><path class="cls-4" d="M297.46,185.09a.85.85,0,0,0,.85-.85v-2.61h2.52a.85.85,0,0,0,.85-.85v-5.49a.85.85,0,0,0-.85-.85H287.14c-2.17-15.86-22.75-25.55-32.2-29.2a4.81,4.81,0,0,0,.23-1.43,4.75,4.75,0,0,0-2.91-4.33,2.85,2.85,0,0,0,1-2.16,2.9,2.9,0,0,0-1.64-2.59l-.45-3.52a4.24,4.24,0,0,0,3.33-4.14v-.29a4.26,4.26,0,0,0-8.51,0v.29a4.25,4.25,0,0,0,3.33,4.14l-.45,3.52a2.9,2.9,0,0,0-1.64,2.59,2.86,2.86,0,0,0,1,2.16,4.75,4.75,0,0,0-2.91,4.33,4.81,4.81,0,0,0,.23,1.43c-9.45,3.65-30,13.34-32.2,29.2H199.64a.85.85,0,0,0-.85.85v5.49a.85.85,0,0,0,.85.85h2.52v2.61a.85.85,0,0,0,.85.85h1.85v92H203a.85.85,0,0,0-.85.85v2.61h-2.52a.85.85,0,0,0-.85.85v5.5a.85.85,0,0,0,.85.85h18.15c10,13.6,32.45,20.33,32.45,20.33s22.49-6.73,32.44-20.33h18.15a.85.85,0,0,0,.85-.85v-5.5a.85.85,0,0,0-.85-.85h-2.52v-2.61a.85.85,0,0,0-.85-.85h-1.85v-92Zm-68.17,86.17H214.1V212.84a39.06,39.06,0,0,1,7.59-23.2,39,39,0,0,1,7.6,23.2v58.42Zm34.18,0H237V212.84c0-14,13.24-23.2,13.24-23.2s13.23,9.18,13.23,23.2v58.42Zm22.9,0H271.18V212.84a39.06,39.06,0,0,1,7.59-23.2,39,39,0,0,1,7.6,23.2v58.42Z"/><path class="cls-5" d="M250.62,57.22,124.79,114.71v201l125.83,57.49,125.84-57.49v-201Zm114.08,247L250.62,356.34,136.54,304.22V122.33L250.62,70.21,364.7,122.33Z"/><path class="cls-6" d="M250.62,30.57,100.55,99.13V331.24L250.62,399.8,400.7,331.24V99.13ZM376.46,315.66,250.62,373.15,124.79,315.66v-201L250.62,57.22l125.84,57.49Z"/><path class="cls-7" d="M250.62,31.67,399.7,99.78V330.59L250.62,398.7,101.55,330.59V99.78L250.62,31.67m0,342.58.42-.19,125.84-57.49.58-.27V114.07l-.58-.27L251,56.31l-.42-.19-.41.19L124.37,113.8l-.58.27V316.3l.58.27,125.84,57.49.41.19m0-343.68L100.55,99.13V331.24L250.62,399.8,400.7,331.24V99.13L250.62,30.57Zm0,342.58L124.79,315.66v-201L250.62,57.22l125.84,57.49v201L250.62,373.15Z"/><path class="cls-8" d="M427.37,168.48c1.16,21.79-25.12,48.05-148.31,90.84-108.26,37.6-160.83,42-196.71,59.53-14.9,30.51-7.28,75.08,8.92,92.24,61.73,41.83,250.15-21.95,250.15,45.58,0,13.3-12.83,24.76-12.83,24.76S360,462.67,360,431.16c0-25.85-20.06-50.19-67.65-50.19-1.31,0-41.71,18.83-41.71,18.83l-57.16-26.11c30.09-7.63,66.71-17.84,108.11-32.58,88.55-31.52,123.07-62.54,123.07-62.54s13-13.35,13-58.77C437.65,185.78,427.37,168.48,427.37,168.48Z"/><path class="cls-9" d="M427.37,168.48a27,27,0,0,1-.38,6,27.29,27.29,0,0,1-1.8,5.76,39.86,39.86,0,0,1-6.56,10.12c-5.32,6.09-11.74,11.09-18.38,15.66a226.6,226.6,0,0,1-20.81,12.32c-7.12,3.78-14.39,7.28-21.72,10.62-14.67,6.71-29.63,12.71-44.68,18.48s-30.24,11.17-45.52,16.3-30.64,10-46.08,14.64-31,8.9-46.56,13-31.22,8-46.8,12.08q-11.7,3-23.23,6.62a194.94,194.94,0,0,0-22.5,8.74,193.82,193.82,0,0,1,22.43-9c7.67-2.47,15.39-4.78,23.18-6.86,15.56-4.2,31.2-8.08,46.75-12.25s31.08-8.51,46.49-13.17,30.77-9.56,46-14.78,30.47-10.47,45.54-16.14,30-11.65,44.7-18.3c7.34-3.31,14.61-6.78,21.73-10.53A231.55,231.55,0,0,0,400,205.64c6.66-4.49,13.11-9.41,18.47-15.42a39.87,39.87,0,0,0,6.63-10,26.63,26.63,0,0,0,1.85-5.73A27.39,27.39,0,0,0,427.37,168.48Z"/><path class="cls-9" d="M105.2,403.72a4.32,4.32,0,0,1-.45-2.64,5.11,5.11,0,0,1,1.36-2.33,16.6,16.6,0,0,1,4.5-3,73.47,73.47,0,0,1,10.16-3.91c6.92-2.19,14-4,21-5.78,14.09-3.48,28.22-6.79,42.29-10.32,28.16-7,56.12-14.8,83.73-23.71q10.38-3.28,20.67-6.79T309,337.94c13.65-4.91,27.08-10.41,40.35-16.25s26.29-12.27,39-19.32c6.31-3.57,12.61-7.17,18.69-11.13,1.54-1,3-2,4.55-3s3-2,4.47-3.09c3-2.08,5.88-4.26,8.65-6.6-2.74,2.37-5.63,4.58-8.57,6.7-1.46,1.08-2.95,2.12-4.45,3.14s-3,2.06-4.52,3c-6,4-12.3,7.7-18.58,11.35-12.66,7.12-25.68,13.58-38.94,19.49s-26.69,11.46-40.33,16.43q-10.2,3.84-20.5,7.34c-6.87,2.36-13.75,4.67-20.66,6.88-27.67,8.81-55.68,16.5-83.88,23.41-14.09,3.47-28.23,6.73-42.33,10.14-7,1.71-14.1,3.43-21,5.54a73.16,73.16,0,0,0-10.18,3.79,16.37,16.37,0,0,0-4.51,3,5,5,0,0,0-1.37,2.29A4.29,4.29,0,0,0,105.2,403.72Z"/><path class="cls-10" d="M162.22,314.3l7.24-1.78v39.61l-7.24,1.78Zm2.62-.65L188,308v7.19l-23.14,5.68Zm0,16.35,20.23-5v7.19l-20.23,5Zm0,16.07L188,340.39v7.19l-23.14,5.69Z"/><path class="cls-10" d="M199,343.63a6.94,6.94,0,0,1-4.24-3.38,13.65,13.65,0,0,1-1.45-6.71v-3a18.23,18.23,0,0,1,1.45-7.4A14.63,14.63,0,0,1,199,317.6a17.45,17.45,0,0,1,6.68-3.25,16.29,16.29,0,0,1,4.23-.57,10.29,10.29,0,0,1,3.58.62,6.53,6.53,0,0,1,2.63,1.76l-4.66,5.9a5.38,5.38,0,0,0-2.35-.88,7.39,7.39,0,0,0-2.82.2A7.63,7.63,0,0,0,202,324a7.29,7.29,0,0,0-1.5,4.66v3c0,1.89.5,3.22,1.5,4s2.42.92,4.25.44a8.81,8.81,0,0,0,2.84-1.31,9.87,9.87,0,0,0,2.33-2.23l4.66,3.75a14.93,14.93,0,0,1-2.66,3.1,17.6,17.6,0,0,1-3.56,2.43,19.48,19.48,0,0,1-4.22,1.61A12.46,12.46,0,0,1,199,343.63Z"/><path class="cls-10" d="M225.54,336.72a6.41,6.41,0,0,1-4-3.1,12.44,12.44,0,0,1-1.38-6.28v-4.6a17,17,0,0,1,1.38-7,14.18,14.18,0,0,1,4-5.28,17.21,17.21,0,0,1,6.37-3.19,12.33,12.33,0,0,1,6.37-.34,6.41,6.41,0,0,1,4,3.06,12.19,12.19,0,0,1,1.38,6.2v4.68a17.1,17.1,0,0,1-1.38,7,14.33,14.33,0,0,1-4,5.3,16.85,16.85,0,0,1-6.37,3.2A12.09,12.09,0,0,1,225.54,336.72Zm9.73-9.76a6.73,6.73,0,0,0,1.21-4v-4.69a4.08,4.08,0,0,0-1.21-3.34,3.61,3.61,0,0,0-3.39-.37,5.91,5.91,0,0,0-3.34,2.23,6.6,6.6,0,0,0-1.2,4v4.69a4.27,4.27,0,0,0,1.18,3.39,3.55,3.55,0,0,0,3.36.39A6,6,0,0,0,235.27,327Z"/><path class="cls-10" d="M248.1,303.15l13.25-4v6.38l-13.25,4Zm4.45,25.19c-1.1-.93-1.66-2.63-1.66-5.11V294.08l7.15-2.14v27.3a2.19,2.19,0,0,0,.39,1.47,1,1,0,0,0,1.15.22l1.77-.54v7.2l-3.6,1.08C255.39,329.38,253.65,329.27,252.55,328.34Z"/><path class="cls-10" d="M272.48,322.85a6.09,6.09,0,0,1-4.19-2.9,12.13,12.13,0,0,1-1.44-6.36v-3.18a20.34,20.34,0,0,1,1.38-7.64,16.08,16.08,0,0,1,4-5.9,17.6,17.6,0,0,1,6.38-3.73,8.54,8.54,0,0,1,6-.2,7,7,0,0,1,3.8,4.08,20.92,20.92,0,0,1,1.3,8.06v1.86l-18.3,6.26v-5l11.86-4.06-.08-.63a4.75,4.75,0,0,0-1.46-3.29,3.14,3.14,0,0,0-3.13-.26,7.52,7.52,0,0,0-3.95,3,8.77,8.77,0,0,0-1.41,5v3.6c0,1.92.51,3.24,1.54,3.94s2.45.74,4.29.11a10.79,10.79,0,0,0,2.81-1.49,13.75,13.75,0,0,0,2.52-2.37l4.61,2.75a25,25,0,0,1-4.69,4.72,18.6,18.6,0,0,1-5.25,2.91A12.87,12.87,0,0,1,272.48,322.85Z"/><path class="cls-10" d="M295.83,287.36l7.47-2.87v28.28l-7.47,2.87Zm13.6,1.83a5.06,5.06,0,0,0-1.7.39,6.38,6.38,0,0,0-3.27,2.71,8.48,8.48,0,0,0-1.16,4.49l-.53-7.15a16.62,16.62,0,0,1,2.84-5,9.44,9.44,0,0,1,3.82-2.87,7.76,7.76,0,0,1,3-.59,4.1,4.1,0,0,1,2.33.76l-4.07,7.63A2.18,2.18,0,0,0,309.43,289.19Z"/><path class="cls-10" d="M317.62,267.55l6.92-2.8v7.46l-6.92,2.8Zm0,11.33,6.92-2.8v28.28l-6.92,2.8Z"/><path class="cls-10" d="M335.4,298.84a5.15,5.15,0,0,1-3.84-2.57,12,12,0,0,1-1.31-6.1v-4.6a19.26,19.26,0,0,1,1.31-7.15,17,17,0,0,1,3.84-5.8,19.05,19.05,0,0,1,6.07-4,11.78,11.78,0,0,1,6.07-1.17,5.1,5.1,0,0,1,3.83,2.53,11.61,11.61,0,0,1,1.32,6v4.69a19.17,19.17,0,0,1-1.32,7.17,17,17,0,0,1-3.83,5.82,19.19,19.19,0,0,1-6.07,4A11.65,11.65,0,0,1,335.4,298.84Zm9.27-11a7.66,7.66,0,0,0,1.15-4.21V278.9c0-1.58-.38-2.64-1.15-3.18s-1.84-.52-3.23.07a6.89,6.89,0,0,0-3.19,2.68,7.57,7.57,0,0,0-1.14,4.16v4.69c0,1.6.38,2.68,1.13,3.23s1.82.55,3.2-.05A6.88,6.88,0,0,0,344.67,287.8Z"/><path class="cls-10" d="M358.9,261.4l7.28-3.33v28.28l-7.28,3.33Zm13.25,1a5.05,5.05,0,0,0-1.66.49,6.9,6.9,0,0,0-3.18,2.91,9.07,9.07,0,0,0-1.13,4.56l-.52-7.11a18.19,18.19,0,0,1,2.76-5.2,10.12,10.12,0,0,1,3.73-3.11,7.74,7.74,0,0,1,2.91-.78,3.83,3.83,0,0,1,2.27.61l-4,7.89A1.9,1.9,0,0,0,372.15,262.39Z"/><ellipse class="cls-11" cx="300.72" cy="249.6" rx="120.18" ry="19.28" transform="translate(-69.28 123.76) rotate(-20.91)"/><rect class="cls-12" width="512" height="512"/></g></g></g></svg>